<svg id="Layer_1" data-name="Layer 1" xmlns="http://www.w3.org/2000/svg" viewBox="0 0 864.289 936.577"><defs><style>.cls-1{fill:none;stroke:#231f20;stroke-miterlimit:288;stroke-width:0.001px;}</style></defs><g id="svgGroup"><path id="front_outsideCutPath" data-name="front outsideCutPath" class="cls-1" d="M91.656,432.216v-8.424h78.48v8.424l78.7.072v-8.5h78.48v8.424l78.7.072v-8.5h78.48v8.424l91.584.072.072-68.832h-8.5v-78.48h8.424l.072-68.76-91.656-.072v8.5h-78.48v-8.424l-78.7-.072v8.5h-78.48v-8.424l-78.7-.072v8.5H91.656v-8.424L.072,216.144,0,284.976H8.5v78.48H.072L0,432.216l91.656.072Z" transform="translate(0.001 0.001)"/><path id="left_outsideCutPath" data-name="left outsideCutPath" class="cls-1" d="M392.9,648.36v-8.424h78.48v8.424l96.264.072.072-68.688h8.424l.072-78.7-8.5-.072V432.36l-96.336-.072v8.5H392.9V432.36l-96.264-.072-.072,68.688h-8.424l-.072,78.7,8.5.072V648.36l96.336.072Z" transform="translate(0.001 0.001)"/><path id="top_outsideCutPath" data-name="top outsideCutPath" class="cls-1" d="M170.352,936.5V928.08H248.76V936.5l78.7.072.072-8.5h78.408V936.5l78.7.072.072-8.5h82.944l.072-96.192h8.424l.072-78.7-8.5-.072V657l-83.016-.072V648.5l-78.7-.072-.072,8.5H327.528V648.5l-78.7-.072-.072,8.5H170.352V648.5l-78.7-.072-.072,8.5H8.64L8.568,753.12H.144l-.072,78.7,8.5.072v96.12l83.016.072V936.5l78.7.072Z" transform="translate(0.001 0.001)"/><path id="back_outsideCutPath" data-name="back outsideCutPath" class="cls-1" d="M91.656,216.072v-8.424h78.48v8.424l78.7.072v-8.5h78.48v8.424l78.7.072v-8.5h78.48v8.424l91.584.072.072-68.832h-8.5V68.832h8.424l.072-68.76L484.488,0V8.5h-78.48V.072L327.312,0V8.5h-78.48V.072L170.136,0V8.5H91.656V.072L.072,0,0,68.832H8.5v78.48H.072L0,216.072l91.656.072Z" transform="translate(0.001 0.001)"/><path id="right_outsideCutPath" data-name="right outsideCutPath" class="cls-1" d="M104.832,648.36v-8.424h78.48v8.424l96.264.072.072-68.688h8.424l.072-78.7-8.5-.072V432.36l-96.336-.072v8.5h-78.48V432.36l-96.264-.072L8.5,500.976H.072L0,579.672l8.5.072V648.36l96.336.072Z" transform="translate(0.001 0.001)"/><path id="bottom_outsideCutPath" data-name="bottom outsideCutPath" class="cls-1" d="M864.216,405.864h-8.424V327.456h8.424l.072-78.7-8.5-.072V170.28h8.424l.072-78.7-8.5-.072V8.568L759.6,8.5V.072L680.9,0l-.072,8.5h-96.12l-.072,83.016h-8.424l-.072,78.7,8.5.072v78.408h-8.424l-.072,78.7,8.5.072v78.408h-8.424l-.072,78.7,8.5.072v82.944l96.192.072v8.424l78.7.072.072-8.5h96.12l.072-83.016h8.424l.072-78.7Z" transform="translate(0.001 0.001)"/></g></svg>